# xmcd
#
# Track frame offsets: 
#        150
#        17410
#        35245
#        50037
#        76183
#        98774
#        120034
#        138037
#        155523
#        178747
#        198963
#
# Disc length: 2902 seconds
#
# Revision: 0
# Processed by: cddbd v1.5.2PL0 Copyright (c) Steve Scherf et al.
# Submitted via: ExactAudioCopyFreeDBPlugin 1.0
#
DISCID=800b540b
DTITLE=陳零九 - 敢不敢
DYEAR=2017
DGENRE=Pop
TTITLE0=敢不敢
TTITLE1=廢物
TTITLE2=阿不然現在是怎樣 (feat. 郭雪芙)
TTITLE3=不見了
TTITLE4=你的名字
TTITLE5=已故事
TTITLE6=傳說 (feat. LilPan)
TTITLE7=心動店員
TTITLE8=禾必
TTITLE9=最後一首情歌
TTITLE10=浪浪別哭
EXTD=
EXTT0=
EXTT1=
EXTT2=
EXTT3=
EXTT4=
EXTT5=
EXTT6=
EXTT7=
EXTT8=
EXTT9=
EXTT10=
PLAYORDER=
